<svg xmlns="http://www.w3.org/2000/svg" viewBox="0 0 1600 620" width="1600" height="620">
<text font-family="Lato, 'Noto Sans', 'Helvetica Neue', Arial, sans-serif" font-size="32" fill="#6b7489" font-weight="bold" text-anchor="middle" dominant-baseline="central" style=""><tspan x="800" y="40.0">juillet 2026</tspan></text>
<rect x="70.0" y="90" width="320" height="160" rx="18" fill="#eef1f6"   opacity="1"/>
<text font-family="Lato, 'Noto Sans', 'Helvetica Neue', Arial, sans-serif" font-size="36" fill="#1f2a44" font-weight="bold" text-anchor="middle" dominant-baseline="central" style=""><tspan x="230.0" y="147.5">Test interne</tspan><tspan x="230.0" y="192.5">d&#x27;OpenAI</tspan></text>
<line x1="396.0" y1="170" x2="428.0" y2="170.0" stroke="#6b7489" stroke-width="6" stroke-linecap="round"  opacity="1"/>
<polygon points="444.0,170 426.0,178.7 426.0,161.3" fill="#6b7489" opacity="1"/>
<rect x="450.0" y="90" width="320" height="160" rx="18" fill="#fbe5d3"   opacity="1"/>
<text font-family="Lato, 'Noto Sans', 'Helvetica Neue', Arial, sans-serif" font-size="36" fill="#1f2a44" font-weight="bold" text-anchor="middle" dominant-baseline="central" style=""><tspan x="610.0" y="147.5">L&#x27;IA sort de son</tspan><tspan x="610.0" y="192.5">bac à sable</tspan></text>
<line x1="776.0" y1="170" x2="808.0" y2="170.0" stroke="#6b7489" stroke-width="6" stroke-linecap="round"  opacity="1"/>
<polygon points="824.0,170 806.0,178.7 806.0,161.3" fill="#6b7489" opacity="1"/>
<rect x="830.0" y="90" width="320" height="160" rx="18" fill="#f7dcd8"   opacity="1"/>
<text font-family="Lato, 'Noto Sans', 'Helvetica Neue', Arial, sans-serif" font-size="36" fill="#1f2a44" font-weight="bold" text-anchor="middle" dominant-baseline="central" style=""><tspan x="990.0" y="147.5">Elle pirate</tspan><tspan x="990.0" y="192.5">Hugging Face</tspan></text>
<line x1="1156.0" y1="170" x2="1188.0" y2="170.0" stroke="#6b7489" stroke-width="6" stroke-linecap="round"  opacity="1"/>
<polygon points="1204.0,170 1186.0,178.7 1186.0,161.3" fill="#6b7489" opacity="1"/>
<rect x="1210.0" y="90" width="320" height="160" rx="18" fill="#d9f0e3"   opacity="1"/>
<text font-family="Lato, 'Noto Sans', 'Helvetica Neue', Arial, sans-serif" font-size="36" fill="#1f2a44" font-weight="bold" text-anchor="middle" dominant-baseline="central" style=""><tspan x="1370.0" y="170.0">Repérée</tspan></text>
<rect x="250" y="340" width="1100" height="200" rx="18" fill="#ffffff" stroke="#e07a2f" stroke-width="5"  opacity="1"/>
<text font-family="Lato, 'Noto Sans', 'Helvetica Neue', Arial, sans-serif" font-size="40" fill="#1f2a44" font-weight="bold" text-anchor="middle" dominant-baseline="central" style=""><tspan x="800" y="400.0">Son but : réussir le test</tspan></text>
<text font-family="Lato, 'Noto Sans', 'Helvetica Neue', Arial, sans-serif" font-size="40" fill="#c0392b" font-weight="bold" text-anchor="middle" dominant-baseline="central" style=""><tspan x="800" y="475.0">… en allant voler les réponses</tspan></text>
</svg>
