<svg xmlns="http://www.w3.org/2000/svg" viewBox="0 0 1600 720" width="1600" height="720">
<text font-family="Lato, 'Noto Sans', 'Helvetica Neue', Arial, sans-serif" font-size="30" fill="#6b7489" font-weight="normal" text-anchor="middle" dominant-baseline="central" style="font-style:italic;"><tspan x="150" y="50.0">entrées</tspan></text>
<text font-family="Lato, 'Noto Sans', 'Helvetica Neue', Arial, sans-serif" font-size="30" fill="#6b7489" font-weight="normal" text-anchor="middle" dominant-baseline="central" style="font-style:italic;"><tspan x="430" y="50.0">poids</tspan></text>
<text font-family="Lato, 'Noto Sans', 'Helvetica Neue', Arial, sans-serif" font-size="30" fill="#6b7489" font-weight="normal" text-anchor="middle" dominant-baseline="central" style="font-style:italic;"><tspan x="760" y="50.0">somme</tspan></text>
<text font-family="Lato, 'Noto Sans', 'Helvetica Neue', Arial, sans-serif" font-size="30" fill="#6b7489" font-weight="normal" text-anchor="middle" dominant-baseline="central" style="font-style:italic;"><tspan x="1130" y="50.0">activation</tspan></text>
<text font-family="Lato, 'Noto Sans', 'Helvetica Neue', Arial, sans-serif" font-size="30" fill="#6b7489" font-weight="normal" text-anchor="middle" dominant-baseline="central" style="font-style:italic;"><tspan x="1460" y="50.0">sortie</tspan></text>
<line x1="205" y1="190" x2="660" y2="360" stroke="#0f7c8c" stroke-width="7" stroke-linecap="round"  opacity="1"/>
<rect x="361.2" y="235.39999999999998" width="90" height="52" rx="26" fill="#ffffff" stroke="#0f7c8c" stroke-width="3"  opacity="1"/>
<text font-family="Lato, 'Noto Sans', 'Helvetica Neue', Arial, sans-serif" font-size="30" fill="#1f2a44" font-weight="normal" text-anchor="middle" dominant-baseline="central" style=""><tspan x="406.2" y="261.4">w₁</tspan></text>
<circle cx="150" cy="190" r="55" fill="#eef1f6" stroke="#1f2a44" stroke-width="3"/>
<text font-family="Lato, 'Noto Sans', 'Helvetica Neue', Arial, sans-serif" font-size="40" fill="#1f2a44" font-weight="normal" text-anchor="middle" dominant-baseline="central" style=""><tspan x="150" y="190.0">x₁</tspan></text>
<line x1="205" y1="360" x2="660" y2="360" stroke="#c0392b" stroke-width="4" stroke-linecap="round"  opacity="1"/>
<rect x="361.2" y="334.0" width="90" height="52" rx="26" fill="#ffffff" stroke="#c0392b" stroke-width="3"  opacity="1"/>
<text font-family="Lato, 'Noto Sans', 'Helvetica Neue', Arial, sans-serif" font-size="30" fill="#1f2a44" font-weight="normal" text-anchor="middle" dominant-baseline="central" style=""><tspan x="406.2" y="360.0">w₂</tspan></text>
<circle cx="150" cy="360" r="55" fill="#eef1f6" stroke="#1f2a44" stroke-width="3"/>
<text font-family="Lato, 'Noto Sans', 'Helvetica Neue', Arial, sans-serif" font-size="40" fill="#1f2a44" font-weight="normal" text-anchor="middle" dominant-baseline="central" style=""><tspan x="150" y="360.0">x₂</tspan></text>
<line x1="205" y1="530" x2="660" y2="360" stroke="#0f7c8c" stroke-width="10" stroke-linecap="round"  opacity="1"/>
<rect x="361.2" y="432.6" width="90" height="52" rx="26" fill="#ffffff" stroke="#0f7c8c" stroke-width="3"  opacity="1"/>
<text font-family="Lato, 'Noto Sans', 'Helvetica Neue', Arial, sans-serif" font-size="30" fill="#1f2a44" font-weight="normal" text-anchor="middle" dominant-baseline="central" style=""><tspan x="406.2" y="458.6">w₃</tspan></text>
<circle cx="150" cy="530" r="55" fill="#eef1f6" stroke="#1f2a44" stroke-width="3"/>
<text font-family="Lato, 'Noto Sans', 'Helvetica Neue', Arial, sans-serif" font-size="40" fill="#1f2a44" font-weight="normal" text-anchor="middle" dominant-baseline="central" style=""><tspan x="150" y="530.0">x₃</tspan></text>
<rect x="675.0" y="88.0" width="170" height="64" rx="32" fill="#e6e0f5" stroke="#6c4fb3" stroke-width="3"  opacity="1"/>
<text font-family="Lato, 'Noto Sans', 'Helvetica Neue', Arial, sans-serif" font-size="28" fill="#1f2a44" font-weight="normal" text-anchor="middle" dominant-baseline="central" style=""><tspan x="760.0" y="120.0">b</tspan></text>
<line x1="760" y1="152" x2="760.0" y2="238.2" stroke="#6c4fb3" stroke-width="4" stroke-linecap="round"  opacity="1"/>
<polygon points="760,251 753.0,236.6 767.0,236.6" fill="#6c4fb3" opacity="1"/>
<circle cx="760" cy="360" r="105" fill="#fbe5d3" stroke="#e07a2f" stroke-width="5"/>
<text font-family="Lato, 'Noto Sans', 'Helvetica Neue', Arial, sans-serif" font-size="80" fill="#e07a2f" font-weight="bold" text-anchor="middle" dominant-baseline="central" style=""><tspan x="760" y="348.0">Σ</tspan></text>
<line x1="870" y1="360" x2="992.4" y2="360.0" stroke="#6b7489" stroke-width="6" stroke-linecap="round"  opacity="1"/>
<polygon points="1010,360 990.2,369.6 990.2,350.4" fill="#6b7489" opacity="1"/>
<rect x="1020" y="260" width="220" height="200" rx="18" fill="#ffffff" stroke="#0f7c8c" stroke-width="5"  opacity="1"/>
<line x1="1035" y1="360.0" x2="1225" y2="360.0" stroke="#d0d5de" stroke-width="2" stroke-linecap="round"  opacity="1"/>
<line x1="1130.0" y1="275" x2="1130.0" y2="445" stroke="#d0d5de" stroke-width="2" stroke-linecap="round"  opacity="1"/>
<polyline fill="none" stroke="#0f7c8c" stroke-width="6" stroke-linecap="round" points="1035.0,434.6 1038.2,434.5 1041.3,434.4 1044.5,434.3 1047.7,434.2 1050.8,434.0 1054.0,433.8 1057.2,433.5 1060.3,433.2 1063.5,432.8 1066.7,432.3 1069.8,431.7 1073.0,431.0 1076.2,430.2 1079.3,429.1 1082.5,427.9 1085.7,426.4 1088.8,424.6 1092.0,422.5 1095.2,420.0 1098.3,417.1 1101.5,413.7 1104.7,409.8 1107.8,405.3 1111.0,400.3 1114.2,394.7 1117.3,388.5 1120.5,381.8 1123.7,374.8 1126.8,367.5 1130.0,360.0 1133.2,352.5 1136.3,345.2 1139.5,338.2 1142.7,331.5 1145.8,325.3 1149.0,319.7 1152.2,314.7 1155.3,310.2 1158.5,306.3 1161.7,302.9 1164.8,300.0 1168.0,297.5 1171.2,295.4 1174.3,293.6 1177.5,292.1 1180.7,290.9 1183.8,289.8 1187.0,289.0 1190.2,288.3 1193.3,287.7 1196.5,287.2 1199.7,286.8 1202.8,286.5 1206.0,286.2 1209.2,286.0 1212.3,285.8 1215.5,285.7 1218.7,285.6 1221.8,285.5 1225.0,285.4"/>
<text font-family="Lato, 'Noto Sans', 'Helvetica Neue', Arial, sans-serif" font-size="36" fill="#0f7c8c" font-weight="bold" text-anchor="middle" dominant-baseline="central" style="font-style:italic;"><tspan x="1130.0" y="500.0">f</tspan></text>
<line x1="1245" y1="360" x2="1372.4" y2="360.0" stroke="#6b7489" stroke-width="6" stroke-linecap="round"  opacity="1"/>
<polygon points="1390,360 1370.2,369.6 1370.2,350.4" fill="#6b7489" opacity="1"/>
<circle cx="1460" cy="360" r="65" fill="#0f7c8c" />
<text font-family="Lato, 'Noto Sans', 'Helvetica Neue', Arial, sans-serif" font-size="46" fill="#ffffff" font-weight="bold" text-anchor="middle" dominant-baseline="central" style=""><tspan x="1460" y="360.0">y</tspan></text>
<text x="800" y="650" font-family="Lato, 'Noto Sans', 'Helvetica Neue', Arial, sans-serif" font-size="44" fill="#1f2a44" text-anchor="middle">y = <tspan fill="#0f7c8c" font-style="italic" font-weight="bold">f</tspan>( <tspan fill="#0f7c8c">w₁</tspan>·x₁ + <tspan fill="#c0392b">w₂</tspan>·x₂ + <tspan fill="#0f7c8c">w₃</tspan>·x₃ + <tspan fill="#6c4fb3">b</tspan> )</text>
</svg>
