<svg xmlns="http://www.w3.org/2000/svg" viewBox="0 0 1600 760" width="1600" height="760">
<text font-family="Lato, 'Noto Sans', 'Helvetica Neue', Arial, sans-serif" font-size="44" fill="#0f7c8c" font-weight="bold" text-anchor="middle" dominant-baseline="central" style=""><tspan x="420" y="45.0">AVANT</tspan></text>
<rect x="180.0" y="101.0" width="480" height="88" rx="18" fill="#d6eef1"   opacity="1"/>
<text font-family="Lato, 'Noto Sans', 'Helvetica Neue', Arial, sans-serif" font-size="32" fill="#1f2a44" font-weight="normal" text-anchor="middle" dominant-baseline="central" style=""><tspan x="420.0" y="145.0">Produire l&#x27;explication</tspan></text>
<line x1="420" y1="192.0" x2="420.0" y2="293.46666666666664" stroke="#6b7489" stroke-width="4" stroke-linecap="round"  opacity="1"/>
<polygon points="420,304.66666666666663 413.9,292.1 426.1,292.1" fill="#6b7489" opacity="1"/>
<rect x="180.0" y="307.66666666666663" width="480" height="88" rx="18" fill="#d6eef1"   opacity="1"/>
<text font-family="Lato, 'Noto Sans', 'Helvetica Neue', Arial, sans-serif" font-size="32" fill="#1f2a44" font-weight="normal" text-anchor="middle" dominant-baseline="central" style=""><tspan x="420.0" y="351.7">Faire l&#x27;exercice</tspan></text>
<line x1="420" y1="398.66666666666663" x2="420.0" y2="500.13333333333327" stroke="#6b7489" stroke-width="4" stroke-linecap="round"  opacity="1"/>
<polygon points="420,511.33333333333326 413.9,498.7 426.1,498.7" fill="#6b7489" opacity="1"/>
<rect x="180.0" y="514.3333333333333" width="480" height="88" rx="18" fill="#d6eef1"   opacity="1"/>
<text font-family="Lato, 'Noto Sans', 'Helvetica Neue', Arial, sans-serif" font-size="32" fill="#1f2a44" font-weight="normal" text-anchor="middle" dominant-baseline="central" style=""><tspan x="420.0" y="558.3">Corriger</tspan></text>
<text font-family="Lato, 'Noto Sans', 'Helvetica Neue', Arial, sans-serif" font-size="44" fill="#e07a2f" font-weight="bold" text-anchor="middle" dominant-baseline="central" style=""><tspan x="1180" y="45.0">APRÈS</tspan></text>
<rect x="940.0" y="101.0" width="480" height="88" rx="18" fill="#fbe5d3"   opacity="1"/>
<text font-family="Lato, 'Noto Sans', 'Helvetica Neue', Arial, sans-serif" font-size="32" fill="#1f2a44" font-weight="normal" text-anchor="middle" dominant-baseline="central" style=""><tspan x="1180.0" y="145.0">Choisir l&#x27;explication</tspan></text>
<line x1="1180" y1="192.0" x2="1180.0" y2="210.8" stroke="#6b7489" stroke-width="4" stroke-linecap="round"  opacity="1"/>
<polygon points="1180,222.0 1173.9,209.4 1186.1,209.4" fill="#6b7489" opacity="1"/>
<rect x="940.0" y="225.0" width="480" height="88" rx="18" fill="#fbe5d3"   opacity="1"/>
<text font-family="Lato, 'Noto Sans', 'Helvetica Neue', Arial, sans-serif" font-size="32" fill="#1f2a44" font-weight="normal" text-anchor="middle" dominant-baseline="central" style=""><tspan x="1180.0" y="269.0">Accompagner</tspan></text>
<line x1="1180" y1="316.0" x2="1180.0" y2="334.8" stroke="#6b7489" stroke-width="4" stroke-linecap="round"  opacity="1"/>
<polygon points="1180,346.0 1173.9,333.4 1186.1,333.4" fill="#6b7489" opacity="1"/>
<rect x="940.0" y="349.0" width="480" height="88" rx="18" fill="#fbe5d3"   opacity="1"/>
<text font-family="Lato, 'Noto Sans', 'Helvetica Neue', Arial, sans-serif" font-size="32" fill="#1f2a44" font-weight="normal" text-anchor="middle" dominant-baseline="central" style=""><tspan x="1180.0" y="393.0">Motiver</tspan></text>
<line x1="1180" y1="440.0" x2="1180.0" y2="458.8" stroke="#6b7489" stroke-width="4" stroke-linecap="round"  opacity="1"/>
<polygon points="1180,470.0 1173.9,457.4 1186.1,457.4" fill="#6b7489" opacity="1"/>
<rect x="940.0" y="473.0" width="480" height="88" rx="18" fill="#fbe5d3"   opacity="1"/>
<text font-family="Lato, 'Noto Sans', 'Helvetica Neue', Arial, sans-serif" font-size="32" fill="#1f2a44" font-weight="normal" text-anchor="middle" dominant-baseline="central" style=""><tspan x="1180.0" y="517.0">Repérer les difficultés</tspan></text>
<line x1="1180" y1="564.0" x2="1180.0" y2="582.8" stroke="#6b7489" stroke-width="4" stroke-linecap="round"  opacity="1"/>
<polygon points="1180,594.0 1173.9,581.4 1186.1,581.4" fill="#6b7489" opacity="1"/>
<rect x="940.0" y="597.0" width="480" height="88" rx="18" fill="#fbe5d3"   opacity="1"/>
<text font-family="Lato, 'Noto Sans', 'Helvetica Neue', Arial, sans-serif" font-size="32" fill="#1f2a44" font-weight="normal" text-anchor="middle" dominant-baseline="central" style=""><tspan x="1180.0" y="641.0">Interagir</tspan></text>
<line x1="700" y1="380" x2="877.6" y2="380.0" stroke="#6b7489" stroke-width="8" stroke-linecap="round"  opacity="1"/>
<polygon points="900,380 874.8,392.2 874.8,367.8" fill="#6b7489" opacity="1"/>
<text font-family="Lato, 'Noto Sans', 'Helvetica Neue', Arial, sans-serif" font-size="30" fill="#6b7489" font-weight="normal" text-anchor="middle" dominant-baseline="central" style="font-style:italic;"><tspan x="800" y="330.0">l&#x27;IA</tspan></text>
</svg>
